<svg width="24" height="24" viewBox="0 0 24 24" fill="none" xmlns="http://www.w3.org/2000/svg">
<path fill-rule="evenodd" clip-rule="evenodd" d="M18.8306 16.2808C18.4394 16.6767 17.8002 16.6771 17.4086 16.2816L12 10.8192L6.59137 16.2816C6.19976 16.6771 5.56059 16.6767 5.16941 16.2808L4.69439 15.8C4.30954 15.4105 4.30954 14.7839 4.69439 14.3943L11.2886 7.72C11.6801 7.32377 12.3199 7.32377 12.7114 7.72L19.3056 14.3943C19.6905 14.7839 19.6905 15.4105 19.3056 15.8L18.8306 16.2808Z" fill="#D6933B"/>
<mask id="mask0_3647_23089" style="mask-type:luminance" maskUnits="userSpaceOnUse" x="4" y="7" width="16" height="10">
<path fill-rule="evenodd" clip-rule="evenodd" d="M18.8306 16.2808C18.4394 16.6767 17.8002 16.6771 17.4086 16.2816L12 10.8192L6.59137 16.2816C6.19976 16.6771 5.56059 16.6767 5.16941 16.2808L4.69439 15.8C4.30954 15.4105 4.30954 14.7839 4.69439 14.3943L11.2886 7.72C11.6801 7.32377 12.3199 7.32377 12.7114 7.72L19.3056 14.3943C19.6905 14.7839 19.6905 15.4105 19.3056 15.8L18.8306 16.2808Z" fill="white"/>
</mask>
<g mask="url(#mask0_3647_23089)">
</g>
</svg>
