<svg width="24" height="24" viewBox="0 0 24 24" fill="none" xmlns="http://www.w3.org/2000/svg">
<path fill-rule="evenodd" clip-rule="evenodd" d="M5.16941 7.71922C5.56059 7.32329 6.19976 7.32294 6.59137 7.71844L12 13.1808L17.4086 7.71844C17.8002 7.32294 18.4394 7.32329 18.8306 7.71922L19.3056 8.20001C19.6905 8.58953 19.6905 9.21613 19.3056 9.60566L12.7114 16.28C12.3199 16.6762 11.6801 16.6762 11.2886 16.28L4.69439 9.60566C4.30954 9.21613 4.30954 8.58953 4.69439 8.20001L5.16941 7.71922Z" fill="#D6933B"/>
<mask id="mask0_3647_21245" style="mask-type:luminance" maskUnits="userSpaceOnUse" x="4" y="7" width="16" height="10">
<path fill-rule="evenodd" clip-rule="evenodd" d="M5.16941 7.71922C5.56059 7.32329 6.19976 7.32294 6.59137 7.71844L12 13.1808L17.4086 7.71844C17.8002 7.32294 18.4394 7.32329 18.8306 7.71922L19.3056 8.20001C19.6905 8.58953 19.6905 9.21613 19.3056 9.60566L12.7114 16.28C12.3199 16.6762 11.6801 16.6762 11.2886 16.28L4.69439 9.60566C4.30954 9.21613 4.30954 8.58953 4.69439 8.20001L5.16941 7.71922Z" fill="white"/>
</mask>
<g mask="url(#mask0_3647_21245)">
</g>
</svg>
