<svg width="24" height="25" viewBox="0 0 24 25" fill="none" xmlns="http://www.w3.org/2000/svg">
<path fill-rule="evenodd" clip-rule="evenodd" d="M12.0007 0.833374C5.56065 0.833374 0.333984 6.06004 0.333984 12.5C0.333984 18.94 5.56065 24.1667 12.0007 24.1667C18.4407 24.1667 23.6673 18.94 23.6673 12.5C23.6673 6.06004 18.4407 0.833374 12.0007 0.833374ZM10.834 6.66671V9.00004H13.1673V6.66671H10.834ZM10.834 11.3334V18.3334H13.1673V11.3334H10.834ZM2.66732 12.5C2.66732 17.645 6.85565 21.8334 12.0007 21.8334C17.1457 21.8334 21.334 17.645 21.334 12.5C21.334 7.35504 17.1457 3.16671 12.0007 3.16671C6.85565 3.16671 2.66732 7.35504 2.66732 12.5Z" fill="white"/>
</svg>
