<svg width="80" height="80" viewBox="0 0 80 80" fill="none" xmlns="http://www.w3.org/2000/svg">
<path d="M39.9525 76.3078C23.1097 76.3078 8.88477 63.2746 8.88477 47.8496C8.88477 51.547 11.8795 54.5472 15.5774 54.5472C19.2717 54.5472 22.2702 51.547 22.2702 47.8496C22.2702 55.8734 30.532 62.9123 39.9525 62.9123C44.5133 62.9123 49.1115 61.1877 52.5681 58.1808C55.8942 55.2874 57.7278 51.617 57.7278 47.8496C57.7278 51.547 60.7233 54.5472 64.4206 54.5472C68.1153 54.5472 71.1133 51.547 71.1133 47.8496C71.1133 63.2746 56.8446 76.3078 39.9525 76.3078Z" fill="white"/>
<path fill-rule="evenodd" clip-rule="evenodd" d="M22.2357 47.1635C22.1169 45.9938 21.6973 44.9133 21.0557 44.0003C19.8443 42.2768 17.8416 41.151 15.5774 41.151C11.8795 41.151 8.88477 44.1485 8.88477 47.8485V10.2282C8.88477 6.53002 11.8795 3.53125 15.5774 3.53125C19.2717 3.53125 22.2702 6.53002 22.2702 10.2282V47.8485C22.2702 47.6171 22.2585 47.3886 22.2357 47.1635Z" fill="white"/>
<path fill-rule="evenodd" clip-rule="evenodd" d="M71.0794 47.1635C70.9677 46.063 70.5898 45.0414 70.0112 44.1642C68.8136 42.3486 66.7567 41.151 64.4213 41.151C60.724 41.151 57.7285 44.1485 57.7285 47.8485V10.2282C57.7285 6.53002 60.724 3.53125 64.4213 3.53125C68.116 3.53125 71.1139 6.53002 71.1139 10.2282V47.8485C71.1139 47.6171 71.1023 47.3886 71.0794 47.1635Z" fill="white"/>
</svg>
