<svg width="20" height="21" viewBox="0 0 20 21" fill="none" xmlns="http://www.w3.org/2000/svg">
<path fill-rule="evenodd" clip-rule="evenodd" d="M18 0.5H6C4.9 0.5 4 1.4 4 2.5V14.5C4 15.6 4.9 16.5 6 16.5H18C19.1 16.5 20 15.6 20 14.5V2.5C20 1.4 19.1 0.5 18 0.5ZM18 14.5H6V2.5H18V14.5ZM2 4.5H0V18.5C0 19.6 0.9 20.5 2 20.5H16V18.5H2V4.5ZM14 10.5V7.5C14 6.95 13.55 6.5 13 6.5H11V11.5H13C13.55 11.5 14 11.05 14 10.5ZM12 7.5H13V10.5H12V7.5ZM16 9.5H17V8.5H16V7.5H17V6.5H15V11.5H16V9.5ZM8 9.5H9C9.55 9.5 10 9.05 10 8.5V7.5C10 6.95 9.55 6.5 9 6.5H7V11.5H8V9.5ZM8 7.5H9V8.5H8V7.5Z" fill="white"/>
</svg>
