<svg width="16" height="17" viewBox="0 0 16 17" fill="none" xmlns="http://www.w3.org/2000/svg">
<path d="M13.8333 1.83268H13V0.999349C13 0.541016 12.625 0.166016 12.1667 0.166016C11.7083 0.166016 11.3333 0.541016 11.3333 0.999349V1.83268H4.66667V0.999349C4.66667 0.541016 4.29167 0.166016 3.83333 0.166016C3.375 0.166016 3 0.541016 3 0.999349V1.83268H2.16667C1.24167 1.83268 0.508333 2.58268 0.508333 3.49935L0.5 15.166C0.5 16.0827 1.24167 16.8327 2.16667 16.8327H13.8333C14.75 16.8327 15.5 16.0827 15.5 15.166V3.49935C15.5 2.58268 14.75 1.83268 13.8333 1.83268ZM13.8333 14.3327C13.8333 14.791 13.4583 15.166 13 15.166H3C2.54167 15.166 2.16667 14.791 2.16667 14.3327V5.99935H13.8333V14.3327ZM3.83333 7.66602H5.5V9.33268H3.83333V7.66602ZM7.16667 7.66602H8.83333V9.33268H7.16667V7.66602ZM10.5 7.66602H12.1667V9.33268H10.5V7.66602Z" fill="white" fill-opacity="0.8"/>
</svg>
