<svg width="18" height="17" viewBox="0 0 18 17" fill="none" xmlns="http://www.w3.org/2000/svg">
<path d="M16.6501 5.54L11.8101 5.12L9.92007 0.67C9.58007 -0.14 8.42007 -0.14 8.08007 0.67L6.19007 5.13L1.36007 5.54C0.480073 5.61 0.120073 6.71 0.790073 7.29L4.46007 10.47L3.36007 15.19C3.16007 16.05 4.09007 16.73 4.85007 16.27L9.00007 13.77L13.1501 16.28C13.9101 16.74 14.8401 16.06 14.6401 15.2L13.5401 10.47L17.2101 7.29C17.8801 6.71 17.5301 5.61 16.6501 5.54ZM9.00007 11.9L5.24007 14.17L6.24007 9.89L2.92007 7.01L7.30007 6.63L9.00007 2.6L10.7101 6.64L15.0901 7.02L11.7701 9.9L12.7701 14.18L9.00007 11.9Z" fill="white" fill-opacity="0.8"/>
</svg>
