<svg width="20" height="19" viewBox="0 0 20 19" fill="none" xmlns="http://www.w3.org/2000/svg">
<path fill-rule="evenodd" clip-rule="evenodd" d="M9.99992 0.333984C4.93992 0.333984 0.833252 4.44065 0.833252 9.50065C0.833252 14.5606 4.93992 18.6673 9.99992 18.6673C15.0599 18.6673 19.1666 14.5606 19.1666 9.50065C19.1666 4.44065 15.0599 0.333984 9.99992 0.333984ZM9.08325 4.91732V8.58398H5.41658V10.4173H9.08325V14.084H10.9166V10.4173H14.5833V8.58398H10.9166V4.91732H9.08325ZM2.66659 9.50065C2.66659 13.5432 5.95742 16.834 9.99992 16.834C14.0424 16.834 17.3333 13.5432 17.3333 9.50065C17.3333 5.45815 14.0424 2.16732 9.99992 2.16732C5.95742 2.16732 2.66659 5.45815 2.66659 9.50065Z" fill="white"/>
</svg>
