<svg width="28" height="29" viewBox="0 0 28 29" fill="none" xmlns="http://www.w3.org/2000/svg">
<path d="M13.9836 27.2084C8.0886 27.2084 3.10986 22.6468 3.10986 17.248C3.10986 18.5422 4.15803 19.5922 5.45229 19.5922C6.74528 19.5922 7.79477 18.5422 7.79477 17.248C7.79477 20.0564 10.6864 22.52 13.9836 22.52C15.5798 22.52 17.1892 21.9164 18.399 20.864C19.5632 19.8513 20.2049 18.5666 20.2049 17.248C20.2049 18.5422 21.2534 19.5922 22.5474 19.5922C23.8406 19.5922 24.8898 18.5422 24.8898 17.248C24.8898 22.6468 19.8958 27.2084 13.9836 27.2084Z" fill="white" fill-opacity="0.92"/>
<path fill-rule="evenodd" clip-rule="evenodd" d="M7.78268 17.0076C7.74113 16.5982 7.59424 16.22 7.36968 15.9005C6.9457 15.2973 6.24475 14.9033 5.45229 14.9033C4.15803 14.9033 3.10986 15.9524 3.10986 17.2474V4.08027C3.10986 2.7859 4.15803 1.73633 5.45229 1.73633C6.74528 1.73633 7.79477 2.7859 7.79477 4.08027V17.2474C7.79477 17.1664 7.79069 17.0864 7.78268 17.0076Z" fill="white" fill-opacity="0.92"/>
<path fill-rule="evenodd" clip-rule="evenodd" d="M24.8776 17.0076C24.8386 16.6225 24.7063 16.2649 24.5038 15.9578C24.0846 15.3224 23.3647 14.9033 22.5473 14.9033C21.2533 14.9033 20.2048 15.9524 20.2048 17.2474V4.08027C20.2048 2.7859 21.2533 1.73633 22.5473 1.73633C23.8405 1.73633 24.8897 2.7859 24.8897 4.08027V17.2474C24.8897 17.1664 24.8856 17.0864 24.8776 17.0076Z" fill="white" fill-opacity="0.92"/>
</svg>
